G04 DipTrace 3.3.1.3*
G04 Bottom.gbr*
%MOMM*%
G04 #@! TF.FileFunction,Copper,L2,Bot*
G04 #@! TF.Part,Single*
G04 #@! TA.AperFunction,Conductor*
%ADD13C,0.2032*%
%ADD14C,0.1524*%
G04 #@! TA.AperFunction,CopperBalancing*
%ADD15C,0.635*%
G04 #@! TA.AperFunction,ComponentPad*
%ADD26R,1.3X1.0*%
%ADD27O,1.3X1.0*%
%ADD28R,1.0X1.3*%
%ADD29O,1.0X1.3*%
%ADD33R,0.3X0.9*%
%ADD34R,0.9X0.3*%
G04 #@! TA.AperFunction,ViaPad*
%ADD36C,0.55*%
%FSLAX35Y35*%
G04*
G71*
G90*
G75*
G01*
G04 Bottom*
%LPD*%
X2690638Y2558018D2*
D13*
Y2002528D1*
X2610308Y1922198D1*
X2404628D1*
X3372738Y1493098D2*
Y1622358D1*
X2690638Y2002528D2*
X2741038Y1952128D1*
Y1783758D1*
X2776598Y1748198D1*
X2992698D1*
X3028258Y1712638D1*
Y1325328D1*
X2404628Y1922198D2*
X2354778Y1972048D1*
X1849428D1*
X1741098Y1863718D1*
X3179638Y3417258D2*
D14*
X3356998D1*
Y3524998D1*
X2513188Y2661278D2*
X2524998Y2673088D1*
Y3115998D1*
X1124998Y2315998D2*
X1212861D1*
X1290861Y2393998D1*
X1602998D1*
X1124998Y2188998D2*
X1212861D1*
X1243338Y2219478D1*
Y2263518D1*
X1273818Y2293998D1*
X1602998D1*
X1304298Y2005318D2*
Y2163518D1*
X1334778Y2193998D1*
X1602998D1*
X1124998Y2442998D2*
X1212861D1*
X1213861Y2443998D1*
X1602998D1*
X1124998Y2061998D2*
X1243341D1*
X1273818Y2092478D1*
Y2213518D1*
X1304298Y2243998D1*
X1602998D1*
X1324998Y1124998D2*
Y1212868D1*
X1474818D1*
X1505298Y1243348D1*
Y1344068D1*
X1535778Y1374548D1*
X1794518D1*
X1824998Y1405028D1*
Y1571998D1*
X1690738Y1778748D2*
Y1993998D1*
X1602998D1*
X1424458Y1778748D2*
X1303518Y1657808D1*
X1236048D1*
X1212858Y1680998D1*
X1124998D1*
X1313578Y1757838D2*
X1449738Y1893998D1*
X1602998D1*
X1124998Y1426998D2*
X1313578D1*
X3549998Y3349998D2*
X3260478D1*
X3229998Y3319518D1*
Y2893998D1*
X3146998D1*
X3549998Y2968998D2*
X3358738D1*
X3328258Y2938518D1*
Y2774478D1*
X3297778Y2743998D1*
X3146998D1*
X3153358Y3312748D2*
Y3214338D1*
X3122878Y3183858D1*
X2474998D1*
Y3115998D1*
X2975998Y3524998D2*
Y3275298D1*
X2945518Y3244818D1*
X2405478D1*
X2374998Y3214338D1*
Y3115998D1*
X3549998Y3095998D2*
X3328258D1*
X3297778Y3065518D1*
Y2824478D1*
X3267298Y2793998D1*
X3146998D1*
X3217258Y1569998D2*
X3245338Y1598078D1*
Y2063521D1*
X3214861Y2093998D1*
X3146998D1*
X1124998Y3077998D2*
X1302978D1*
X1333458Y3047518D1*
Y2724478D1*
X1363938Y2693998D1*
X1602998D1*
X1263218Y1708168D2*
Y1893998D1*
X1293698Y1924478D1*
X1465828D1*
X1485348Y1943998D1*
X1602998D1*
X1124998Y1553998D2*
X1263218D1*
X3549998Y2460998D2*
X3426648D1*
X3393648Y2493998D1*
X3146998D1*
X2594998Y3524998D2*
Y3397218D1*
X2564518Y3366738D1*
X2274958D1*
X2244478Y3336258D1*
Y3265168D1*
X2224998Y3245688D1*
Y3115998D1*
X2708018Y1695298D2*
Y1821478D1*
X2677538Y1851958D1*
X2342638D1*
X3166228Y1442738D2*
X3356998Y1251968D1*
Y1124998D1*
X2048588Y2744868D2*
X2198138Y2595318D1*
Y2269128D1*
X1578998Y3408788D2*
Y3524998D1*
X2848998D2*
Y3328648D1*
X2818518Y3298168D1*
X2355478D1*
X2324998Y3267688D1*
Y3115998D1*
X3102998Y1124998D2*
Y1212868D1*
X2909958D1*
X2879478Y1243348D1*
Y1457708D1*
X2874998Y1462188D1*
Y1571998D1*
X2848998Y1124998D2*
Y1253438D1*
X2624998Y1477438D1*
Y1571998D1*
X2867738Y1924998D2*
X2804538Y1988198D1*
Y2651048D1*
X2824998Y2671508D1*
Y3115998D1*
X1124998Y1807998D2*
X1212858D1*
Y1924478D1*
X1243338Y1954958D1*
X1354658D1*
X1443695Y2043998D1*
X1602998D1*
X1124998Y3331998D2*
Y3404858D1*
X1252618D1*
X1283098Y3374378D1*
Y3326988D1*
X1363938Y3246148D1*
Y2793998D1*
X1602998D1*
X1451998Y3524998D2*
Y3257208D1*
X1482478Y3226728D1*
X1794518D1*
X1824998Y3196248D1*
Y3115998D1*
X1874998Y1324188D2*
Y1571998D1*
X1578998Y1124998D2*
Y1243348D1*
X1609478Y1273828D1*
X1944518D1*
X1974998Y1304308D1*
Y1571998D1*
X1705998Y3524998D2*
Y3287688D1*
X1736478Y3257208D1*
X1844518D1*
X1874998Y3226728D1*
Y3115998D1*
X2213998Y3524998D2*
Y3427698D1*
X2183518Y3397218D1*
X2155478D1*
X2124998Y3366735D1*
Y3115998D1*
X2175358Y3336268D2*
X2174998Y3115998D1*
X2092088Y1483738D2*
X2097498D1*
X2124998Y1511238D1*
Y1571998D1*
X2340998Y1124998D2*
Y1212868D1*
X2474998Y1346868D1*
Y1571998D1*
X3549998Y1825998D2*
X3352868D1*
X3322388Y1856478D1*
Y2163518D1*
X3291908Y2193998D1*
X3146998D1*
X3372738Y1750358D2*
X3306298D1*
X3275818Y1780838D1*
Y2113521D1*
X3245341Y2143998D1*
X3146998D1*
X1544998Y1524018D2*
X1595358Y1473658D1*
X1744518D1*
X1774998Y1504138D1*
Y1571998D1*
X3146998Y2693998D2*
X3073138D1*
X3045638Y2666498D1*
Y2642028D1*
X1602998Y2143998D2*
X1698368D1*
X2624998Y3115998D2*
Y3020208D1*
X2655478Y2989728D1*
X2707288D1*
Y2692388D1*
X2340998Y3417098D2*
Y3524998D1*
X3043098Y3070238D2*
X3152908D1*
X1774998Y1571998D2*
Y1639858D1*
X2074998D1*
X2145238Y1710098D1*
X2394518D1*
X2424998Y1679618D1*
Y1571998D1*
X2707288Y2989728D2*
X2744518D1*
X2774998Y3020208D1*
Y3115998D1*
X1602998Y2943998D2*
X1695968D1*
Y2856148D1*
X2424998Y1571998D2*
Y1494358D1*
X2389998D1*
Y1443998D1*
X2074998Y1639858D2*
Y1571998D1*
X3045638Y2642028D2*
Y2074478D1*
X3076118Y2043998D1*
X3146998D1*
X1983018Y2492868D2*
Y2784628D1*
X2013498Y2815108D1*
X2098948D1*
X1698368Y2143998D2*
X1969878D1*
X2000358Y2174478D1*
Y2240578D1*
X1983018Y2257918D1*
Y2492868D1*
X2505358Y2251778D2*
X2522498D1*
X2549998Y2224278D1*
Y2181538D1*
X2707288Y2692388D2*
X2613218Y2598318D1*
Y2359638D1*
X2505358Y2251778D1*
X1695968Y2856148D2*
X1877738D1*
X3549998Y2587998D2*
X3470978D1*
Y2547868D1*
X3420618D1*
Y2599148D1*
X3439578Y2618108D1*
X3420618Y2547868D2*
X3416748Y2543998D1*
X3146998D1*
X3549998Y2714998D2*
X3419698D1*
X3389218Y2684518D1*
Y2624478D1*
X3358738Y2593998D1*
X3146998D1*
X1484258Y2594358D2*
X1602998Y2593998D1*
X1595248Y3015998D2*
X1629388Y2981858D1*
X1897618D1*
X1928098Y2951378D1*
Y2524478D1*
X1897618Y2493998D1*
X1602998D1*
X1243338D1*
X1212858Y2524478D1*
Y2569998D1*
X1124998D1*
X1232738Y2894718D2*
Y2757128D1*
X1243338Y2746528D1*
Y2666508D1*
Y2574478D1*
X1273818Y2543998D1*
X1602998D1*
X1124998Y2696998D2*
Y2666508D1*
X1243338D1*
X1124998Y2950998D2*
X1252608D1*
X1283098Y2920508D1*
Y2844358D1*
X1414298D2*
Y3115408D1*
X1444778Y3145888D1*
X1595248D1*
X1283098Y2844358D2*
Y2675198D1*
X1313578Y2644718D1*
X1534255D1*
X1534978Y2643998D1*
X1602998D1*
X3280358Y1255098D2*
X3061278Y1474178D1*
Y1793998D1*
X3146998D1*
X3429858Y1317998D2*
X3549998D1*
X1705998Y1124998D2*
Y1212868D1*
X1736478Y1243348D1*
X1994518D1*
X2024998Y1273828D1*
Y1571998D1*
X2213998Y1124998D2*
Y1212868D1*
X2274998Y1273868D1*
Y1571998D1*
X2721998Y1124998D2*
Y1243348D1*
X2574998Y1390348D1*
Y1571998D1*
X1959998Y1124998D2*
Y1212868D1*
X2024998D1*
X2055478Y1243348D1*
Y1353248D1*
X2174998Y1472768D1*
Y1571998D1*
X2721998Y3524998D2*
Y3366738D1*
X2691518Y3336258D1*
X2305478D1*
X2274998Y3305778D1*
Y3115998D1*
X1959998Y3524998D2*
Y3406658D1*
X2024998Y3341658D1*
Y3115998D1*
X2086998Y3524998D2*
Y3433698D1*
X2074998Y3421698D1*
Y3115998D1*
X2086998Y1124998D2*
Y1253768D1*
X2224998Y1391768D1*
Y1571998D1*
X3549998Y2841998D2*
X3389218D1*
X3358738Y2811518D1*
Y2674478D1*
X3328258Y2643998D1*
X3146998D1*
X1877738Y2743998D2*
X1602998D1*
X1232738Y3336918D2*
Y3204998D1*
X1124998D1*
X2594998Y1124998D2*
Y1212868D1*
X2524998Y1282868D1*
Y1571998D1*
X1877738Y2399998D2*
D13*
X1821738Y2343998D1*
X1673398D1*
Y2327118D1*
X1801628Y2198888D1*
X1949998D1*
X2976078Y2350398D2*
X2976088Y2498228D1*
X3283218Y2382258D2*
X3244958Y2343998D1*
X3146998D1*
X2309048Y2714178D2*
X2155218Y2868008D1*
X2134358D1*
X1974998Y3027368D1*
X1668918D1*
X1627388Y3068898D1*
X1568158D1*
X1532598Y3033338D1*
Y2843998D1*
X1602998D1*
X2974998Y1571998D2*
Y1642398D1*
X2674998D1*
X2518338Y1799058D1*
X2272408D1*
X1673398Y2343998D2*
X1602998D1*
X1974998Y3027368D2*
Y3115998D1*
X2238808Y2198888D2*
X2251038Y2211118D1*
Y2656168D1*
X2309048Y2714178D1*
X2272408Y1799058D2*
X1801638D1*
X2674998Y1642398D2*
Y1571998D1*
X2975358Y1374998D2*
X2974998Y1571998D1*
X3028298Y2762578D2*
Y2908435D1*
X3063861Y2943998D1*
X3146998D1*
X2976088Y2498228D2*
Y2710368D1*
X3028298Y2762578D1*
X2562858Y2610918D2*
D14*
Y2437928D1*
X2423218Y2298288D1*
Y2055428D1*
X2392738Y2024948D1*
X1748728D1*
X2874998Y2610918D2*
Y3115998D1*
X2050718Y2641398D2*
Y2279728D1*
X1967748Y3203738D2*
Y3280078D1*
X1937268Y3310558D1*
X1863478D1*
X1832998Y3341038D1*
Y3524998D1*
X2262248Y1659738D2*
X2374998D1*
Y1571998D1*
X3229998Y1124998D2*
Y1212868D1*
X3199518Y1243348D1*
X2955478D1*
X2924998Y1273828D1*
Y1571998D1*
X3102998Y3524998D2*
Y3244818D1*
X3072518Y3214338D1*
X2455478D1*
X2424998Y3183858D1*
Y3115998D1*
X1124998Y1299998D2*
X1444338D1*
X1474818Y1330478D1*
Y1813518D1*
X1505295Y1843998D1*
X1602998D1*
X3549998Y3222998D2*
X3290958D1*
X3260478Y3192518D1*
Y2874478D1*
X3229998Y2843998D1*
X3146998D1*
X3549998Y2333998D2*
X3460628D1*
X3420628Y2293998D1*
X3146998D1*
X3549998Y1952998D2*
X3462128D1*
X3431648Y1983478D1*
Y2213518D1*
X3401168Y2243998D1*
X3146998D1*
X2774058Y2752258D2*
Y1874478D1*
X2804538Y1843998D1*
X3146998D1*
X2457508Y2498228D2*
Y2952748D1*
X2427028Y2983228D1*
X2207248D1*
X2854898Y2498228D2*
Y2220348D1*
X2885378Y2189868D1*
X2975718D1*
Y2024478D1*
X3006198Y1993998D1*
X3146998D1*
X2392738Y2799808D2*
Y2112338D1*
X2362258Y2081858D1*
X1648008D1*
Y2093998D1*
X1602998D1*
X2925358Y2240228D2*
Y2932618D1*
X2992738Y2999998D1*
X2925358Y2139508D2*
Y1924478D1*
X2955838Y1893998D1*
X3146998D1*
X1324998Y3524998D2*
Y3436958D1*
X1394418Y3367538D1*
Y3226728D1*
X1424898Y3196248D1*
X1774998D1*
Y3115998D1*
X2325358Y1373768D2*
X2324998Y1571998D1*
X2727858Y1467738D2*
X2794518D1*
X2824998Y1498218D1*
Y1571998D1*
X3549998Y1444998D2*
X3453578D1*
X3423098Y1475478D1*
Y1672718D1*
X3336778D1*
X3306298Y1642238D1*
Y1523578D1*
X3275818Y1493098D1*
X3197378D1*
X3166898Y1523578D1*
Y1596378D1*
X3214858Y1644338D1*
Y1943998D1*
X3146998D1*
D36*
X3372738Y1622358D3*
Y1493098D3*
X2404628Y1922198D3*
X3028258Y1325328D3*
X1741098Y1863718D3*
X2690638Y2558018D3*
X2513188Y2661278D3*
X3179638Y3417258D3*
X1304298Y2005318D3*
X1690738Y1778748D3*
X1424458D3*
X1313578Y1757838D3*
Y1426998D3*
X3153358Y3312748D3*
X3217258Y1569998D3*
X1263218Y1708168D3*
Y1553998D3*
X2342638Y1851958D3*
X2708018Y1695298D3*
X3166228Y1442738D3*
X2198138Y2269128D3*
X2048588Y2744868D3*
X1578998Y3408788D3*
X2867738Y1924998D3*
X1874998Y1324188D3*
X2175358Y3336268D3*
X2092088Y1483738D3*
X3372738Y1750358D3*
X2098948Y2815108D3*
X2340998Y3417098D3*
X3152908Y3070238D3*
X3043098D3*
X1544998Y1524018D3*
X2505358Y2251778D3*
X1877738Y2856148D3*
X1695968D3*
X1983018Y2492868D3*
X2549998Y2181538D3*
X2707288Y2692388D3*
X1698368Y2143998D3*
X2389998Y1443998D3*
X3045638Y2642028D3*
X3439578Y2618108D3*
X1484258Y2594358D3*
X1595248Y3015998D3*
X1232738Y2894718D3*
X1595248Y3145888D3*
X1414298Y2844358D3*
X1283098D3*
X3280358Y1255098D3*
X3429858Y1317998D3*
X1877738Y2743998D3*
X1232738Y3336918D3*
X3283218Y2382258D3*
X2976088Y2498228D3*
X2272408Y1799058D3*
X2238808Y2198888D3*
X3028298Y2762578D3*
X2975358Y1374998D3*
X1877738Y2399998D3*
X1801638Y1799058D3*
X2309048Y2714178D3*
X1949998Y2198888D3*
X2976078Y2350398D3*
X1748728Y2024948D3*
X2562858Y2610918D3*
X2874998D3*
X2050718Y2279728D3*
Y2641398D3*
X1967748Y3203738D3*
X2262248Y1659738D3*
X2774058Y2752258D3*
X2207248Y2983228D3*
X2457508Y2498228D3*
X2854898D3*
X2392738Y2799808D3*
X2992738Y2999998D3*
X2925358Y2240228D3*
Y2139508D3*
X2325358Y1373768D3*
X2727858Y1467738D3*
X3458388Y1762535D2*
D15*
X3453578Y1768841D1*
X3348385Y1769025D1*
X3335208Y1771645D1*
X3323008Y1777268D1*
X3312458Y1785588D1*
X3302478Y1795565D1*
X3302488Y1718348D1*
X3310835Y1723638D1*
X3323438Y1728288D1*
X3336798Y1729865D1*
X3427581Y1729691D1*
X3436458Y1728285D1*
X3440338Y1729755D1*
X3446315Y1744185D1*
X3454478Y1757501D1*
X3458388Y1762461D1*
D26*
X1124998Y1299998D3*
D27*
Y1426998D3*
Y1553998D3*
Y1680998D3*
Y1807998D3*
Y1934998D3*
Y2061998D3*
Y2188998D3*
Y2315998D3*
Y2442998D3*
Y2569998D3*
Y2696998D3*
Y2823998D3*
Y2950998D3*
Y3077998D3*
Y3204998D3*
Y3331998D3*
D26*
X3549998Y3349998D3*
D27*
Y3222998D3*
Y3095998D3*
Y2968998D3*
Y2841998D3*
Y2714998D3*
Y2587998D3*
Y2460998D3*
Y2333998D3*
Y2206998D3*
Y2079998D3*
Y1952998D3*
Y1825998D3*
Y1698998D3*
Y1571998D3*
Y1444998D3*
Y1317998D3*
D28*
X1324998Y3524998D3*
D29*
X1451998D3*
X1578998D3*
X1705998D3*
X1832998D3*
X1959998D3*
X2086998D3*
X2213998D3*
X2340998D3*
X2467998D3*
X2594998D3*
X2721998D3*
X2848998D3*
X2975998D3*
X3102998D3*
X3229998D3*
X3356998D3*
D28*
X1324998Y1124998D3*
D29*
X1451998D3*
X1578998D3*
X1705998D3*
X1832998D3*
X1959998D3*
X2086998D3*
X2213998D3*
X2340998D3*
X2467998D3*
X2594998D3*
X2721998D3*
X2848998D3*
X2975998D3*
X3102998D3*
X3229998D3*
X3356998D3*
D33*
X1774998Y3115998D3*
X1824998D3*
X1874998D3*
X1924998D3*
X1974998D3*
X2024998D3*
X2074998D3*
X2124998D3*
X2174998D3*
X2224998D3*
X2274998D3*
X2324998D3*
X2374998D3*
X2424998D3*
X2474998D3*
X2524998D3*
X2574998D3*
X2624998D3*
X2674998D3*
X2724998D3*
X2774998D3*
X2824998D3*
X2874998D3*
X2924998D3*
X2974998D3*
D34*
X3146998Y2943998D3*
Y2893998D3*
Y2843998D3*
Y2793998D3*
Y2743998D3*
Y2693998D3*
Y2643998D3*
Y2593998D3*
Y2543998D3*
Y2493998D3*
Y2443998D3*
Y2393998D3*
Y2343998D3*
Y2293998D3*
Y2243998D3*
Y2193998D3*
Y2143998D3*
Y2093998D3*
Y2043998D3*
Y1993998D3*
Y1943998D3*
Y1893998D3*
Y1843998D3*
Y1793998D3*
Y1743998D3*
D33*
X2974998Y1571998D3*
X2924998D3*
X2874998D3*
X2824998D3*
X2774998D3*
X2724998D3*
X2674998D3*
X2624998D3*
X2574998D3*
X2524998D3*
X2474998D3*
X2424998D3*
X2374998D3*
X2324998D3*
X2274998D3*
X2224998D3*
X2174998D3*
X2124998D3*
X2074998D3*
X2024998D3*
X1974998D3*
X1924998D3*
X1874998D3*
X1824998D3*
X1774998D3*
D34*
X1602998Y1743998D3*
Y1793998D3*
Y1843998D3*
Y1893998D3*
Y1943998D3*
Y1993998D3*
Y2043998D3*
Y2093998D3*
Y2143998D3*
Y2193998D3*
Y2243998D3*
Y2293998D3*
Y2343998D3*
Y2393998D3*
Y2443998D3*
Y2493998D3*
Y2543998D3*
Y2593998D3*
Y2643998D3*
Y2693998D3*
Y2743998D3*
Y2793998D3*
Y2843998D3*
Y2893998D3*
Y2943998D3*
M02*
