G04 DipTrace 3.3.1.3*
G04 TopMask.gbr*
%MOMM*%
G04 #@! TF.FileFunction,Soldermask,Top*
G04 #@! TF.Part,Single*
%AMOUTLINE1*
4,1,40,
0.70008,0.58439,
0.69709,0.61827,
0.68719,0.65534,
0.67094,0.69022,
0.64888,0.72171,
0.62171,0.74888,
0.59022,0.77094,
0.55534,0.78719,
0.51827,0.79709,
0.48439,0.80008,
-0.48439,0.80008,
-0.51827,0.79709,
-0.55534,0.78719,
-0.59022,0.77094,
-0.62171,0.74888,
-0.64888,0.72171,
-0.67094,0.69022,
-0.68719,0.65534,
-0.69709,0.61827,
-0.70008,0.58439,
-0.70008,-0.58439,
-0.69709,-0.61827,
-0.68719,-0.65534,
-0.67094,-0.69022,
-0.64888,-0.72171,
-0.62171,-0.74888,
-0.59022,-0.77094,
-0.55534,-0.78719,
-0.51827,-0.79709,
-0.48439,-0.80008,
0.48439,-0.80008,
0.51827,-0.79709,
0.55534,-0.78719,
0.59022,-0.77094,
0.62171,-0.74888,
0.64888,-0.72171,
0.67094,-0.69022,
0.68719,-0.65534,
0.69709,-0.61827,
0.70008,-0.58439,
0.70008,0.58439,
0*%
%ADD42R,0.75015X1.40015*%
%ADD48R,1.25015X0.65015*%
%ADD50C,1.60015*%
%ADD52O,1.20015X1.50015*%
%ADD54R,1.20015X1.50015*%
%ADD56O,1.50015X1.20015*%
%ADD58R,1.50015X1.20015*%
%ADD60R,1.00015X0.55015*%
%ADD62R,0.60015X0.90015*%
%ADD64R,0.90015X0.60015*%
%ADD66R,1.20015X1.30015*%
%ADD68R,1.30015X1.20015*%
%ADD72OUTLINE1*%
%FSLAX35Y35*%
G04*
G71*
G90*
G75*
G01*
G04 TopMask*
%LPD*%
D72*
X1574998Y2724998D3*
X1774998D3*
X1574998Y2399998D3*
X1774998D3*
D68*
X2199998Y2024998D3*
X2369998D3*
X2244998Y2374998D3*
X2074998D3*
D66*
X1949998Y1899998D3*
Y2069998D3*
D68*
X1974998Y1390998D3*
X2144998D3*
X2549998Y2374998D3*
X2719998D3*
D66*
X2624998Y1824998D3*
Y1994998D3*
D68*
X2649998Y1374998D3*
X2819998D3*
D66*
X1874998Y3074998D3*
Y3244998D3*
X1374998Y2524998D3*
Y2694998D3*
D64*
X3124998Y1699998D3*
Y1634998D3*
Y1569998D3*
X3294998D3*
Y1699998D3*
Y1636498D3*
D62*
X2324998Y1549998D3*
X2389998D3*
X2454998D3*
Y1719998D3*
X2324998D3*
X2388498D3*
D60*
X3249998Y1924998D3*
Y1989998D3*
Y2054998D3*
X3079998D3*
Y1989998D3*
Y1924998D3*
D58*
X1124998Y1299998D3*
D56*
Y1426998D3*
Y1553998D3*
Y1680998D3*
Y1807998D3*
Y1934998D3*
Y2061998D3*
Y2188998D3*
Y2315998D3*
Y2442998D3*
Y2569998D3*
Y2696998D3*
Y2823998D3*
Y2950998D3*
Y3077998D3*
Y3204998D3*
Y3331998D3*
D58*
X3549998Y3349998D3*
D56*
Y3222998D3*
Y3095998D3*
Y2968998D3*
Y2841998D3*
Y2714998D3*
Y2587998D3*
Y2460998D3*
Y2333998D3*
Y2206998D3*
Y2079998D3*
Y1952998D3*
Y1825998D3*
Y1698998D3*
Y1571998D3*
Y1444998D3*
Y1317998D3*
D54*
X1324998Y3524998D3*
D52*
X1451998D3*
X1578998D3*
X1705998D3*
X1832998D3*
X1959998D3*
X2086998D3*
X2213998D3*
X2340998D3*
X2467998D3*
X2594998D3*
X2721998D3*
X2848998D3*
X2975998D3*
X3102998D3*
X3229998D3*
X3356998D3*
D54*
X1324998Y1124998D3*
D52*
X1451998D3*
X1578998D3*
X1705998D3*
X1832998D3*
X1959998D3*
X2086998D3*
X2213998D3*
X2340998D3*
X2467998D3*
X2594998D3*
X2721998D3*
X2848998D3*
X2975998D3*
X3102998D3*
X3229998D3*
X3356998D3*
D50*
X2299998Y3199998D3*
X2499998D3*
X2699998D3*
X2899998D3*
X3099998D3*
X3299998D3*
D66*
X2774998Y1999998D3*
Y1829998D3*
D68*
X3324998Y2274998D3*
X3154998D3*
X3299998Y1349998D3*
X3129998D3*
D62*
X1424998Y1999998D3*
X1489998D3*
X1554998D3*
Y2169998D3*
X1424998D3*
X1488498D3*
D66*
X2299998Y3024998D3*
Y2854998D3*
X2499998Y3024998D3*
Y2854998D3*
X2899998Y2999998D3*
Y2829998D3*
X2699998Y2874998D3*
Y3044998D3*
D48*
X1499998Y3015998D3*
Y3095998D3*
Y3175998D3*
Y3255998D3*
X1339998D3*
Y3175998D3*
Y3095998D3*
Y3015998D3*
D42*
X1449998Y1415998D3*
X1544998D3*
X1639998D3*
Y1675998D3*
X1449998D3*
D68*
X3149998Y2649998D3*
X3319998D3*
X3149998Y2474998D3*
X3319998D3*
M02*
