M48
METRIC,0000.00
T01C0.3
T02C0.7
%
T01
X+003373Y+001622
X+003373Y+001750
X+003217Y+001570
X+003166Y+001443
X+003028Y+001325
X+002975Y+001375
X+002728Y+001468
X+002708Y+001695
X+002868Y+001925
X+002925Y+002140
X+002925Y+002240
X+002976Y+002350
X+002976Y+002498
X+002855Y+002498
X+002875Y+002611
X+003046Y+002642
X+003028Y+002763
X+002993Y+003000
X+003043Y+003070
X+003153Y+003070
X+003153Y+003313
X+003180Y+003417
X+002774Y+002752
X+002707Y+002692
X+002691Y+002558
X+002563Y+002611
X+002513Y+002661
X+002458Y+002498
X+002505Y+002252
X+002550Y+002182
X+002405Y+001922
X+002343Y+001852
X+002272Y+001799
X+002262Y+001660
X+002092Y+001484
X+002325Y+001374
X+002390Y+001444
X+001875Y+001324
X+001545Y+001524
X+001314Y+001427
X+001263Y+001554
X+001263Y+001708
X+001314Y+001758
X+001424Y+001779
X+001304Y+002005
X+001698Y+002144
X+001749Y+002025
X+001741Y+001864
X+001802Y+001799
X+001691Y+001779
X+001950Y+002199
X+002051Y+002280
X+002198Y+002269
X+002239Y+002199
X+001983Y+002493
X+001878Y+002400
X+002051Y+002641
X+002049Y+002745
X+002099Y+002815
X+002207Y+002983
X+002393Y+002800
X+002309Y+002714
X+001878Y+002744
X+001878Y+002856
X+001696Y+002856
X+001595Y+003016
X+001595Y+003146
X+001579Y+003409
X+001233Y+003337
X+001233Y+002895
X+001283Y+002844
X+001414Y+002844
X+001484Y+002594
X+001968Y+003204
X+002175Y+003336
X+002341Y+003417
X+003440Y+002618
X+003283Y+002382
X+003373Y+001493
X+003430Y+001318
X+003280Y+001255
T02
X+001125Y+001300
X+001125Y+001427
X+001125Y+001554
X+001125Y+001681
X+001125Y+001808
X+001125Y+001935
X+001125Y+002062
X+001125Y+002189
X+001125Y+002316
X+001125Y+002443
X+001125Y+002570
X+001125Y+002697
X+001125Y+002824
X+001125Y+002951
X+001125Y+003078
X+001125Y+003205
X+001125Y+003332
X+001325Y+003525
X+001452Y+003525
X+001579Y+003525
X+001706Y+003525
X+001833Y+003525
X+001960Y+003525
X+002087Y+003525
X+002214Y+003525
X+002341Y+003525
X+002468Y+003525
X+002595Y+003525
X+002722Y+003525
X+002849Y+003525
X+002976Y+003525
X+003103Y+003525
X+003230Y+003525
X+003357Y+003525
X+003550Y+003350
X+003550Y+003223
X+003550Y+003096
X+003550Y+002969
X+003550Y+002842
X+003550Y+002715
X+003550Y+002588
X+003550Y+002461
X+003550Y+002334
X+003550Y+002207
X+003550Y+002080
X+003550Y+001953
X+003550Y+001826
X+003550Y+001699
X+003550Y+001572
X+003550Y+001445
X+003550Y+001318
X+003357Y+001125
X+003230Y+001125
X+003103Y+001125
X+002976Y+001125
X+002849Y+001125
X+002722Y+001125
X+002595Y+001125
X+002468Y+001125
X+002341Y+001125
X+002214Y+001125
X+002087Y+001125
X+001960Y+001125
X+001833Y+001125
X+001706Y+001125
X+001579Y+001125
X+001452Y+001125
X+001325Y+001125
T00
M30
