G04 DipTrace 3.3.1.3*
G04 TopPaste.gbr*
%MOMM*%
G04 #@! TF.FileFunction,Paste,Top*
G04 #@! TF.Part,Single*
%AMOUTLINE2*
4,1,40,
0.49992,0.57561,
0.49924,0.58339,
0.49835,0.58672,
0.49692,0.58978,
0.49498,0.59256,
0.49256,0.59498,
0.48978,0.59692,
0.48672,0.59835,
0.48339,0.59924,
0.47561,0.59992,
-0.47561,0.59992,
-0.48339,0.59924,
-0.48672,0.59835,
-0.48978,0.59692,
-0.49256,0.59498,
-0.49498,0.59256,
-0.49692,0.58978,
-0.49835,0.58672,
-0.49924,0.58339,
-0.49992,0.57561,
-0.49992,-0.57561,
-0.49924,-0.58339,
-0.49835,-0.58672,
-0.49692,-0.58978,
-0.49498,-0.59256,
-0.49256,-0.59498,
-0.48978,-0.59692,
-0.48672,-0.59835,
-0.48339,-0.59924,
-0.47561,-0.59992,
0.47561,-0.59992,
0.48339,-0.59924,
0.48672,-0.59835,
0.48978,-0.59692,
0.49256,-0.59498,
0.49498,-0.59256,
0.49692,-0.58978,
0.49835,-0.58672,
0.49924,-0.58339,
0.49992,-0.57561,
0.49992,0.57561,
0*%
%ADD43R,0.34985X0.99985*%
%ADD49R,0.84985X0.24985*%
%ADD51C,1.19985*%
%ADD61R,0.59985X0.14985*%
%ADD63R,0.19985X0.49985*%
%ADD65R,0.49985X0.19985*%
%ADD67R,0.79985X0.89985*%
%ADD69R,0.89985X0.79985*%
%ADD73OUTLINE2*%
%FSLAX35Y35*%
G04*
G71*
G90*
G75*
G01*
G04 TopPaste*
%LPD*%
D73*
X1574998Y2724998D3*
X1774998D3*
X1574998Y2399998D3*
X1774998D3*
D69*
X2199998Y2024998D3*
X2369998D3*
X2244998Y2374998D3*
X2074998D3*
D67*
X1949998Y1899998D3*
Y2069998D3*
D69*
X1974998Y1390998D3*
X2144998D3*
X2549998Y2374998D3*
X2719998D3*
D67*
X2624998Y1824998D3*
Y1994998D3*
D69*
X2649998Y1374998D3*
X2819998D3*
D67*
X1874998Y3074998D3*
Y3244998D3*
X1374998Y2524998D3*
Y2694998D3*
D65*
X3124998Y1699998D3*
Y1634998D3*
Y1569998D3*
X3294998D3*
Y1699998D3*
Y1636498D3*
D63*
X2324998Y1549998D3*
X2389998D3*
X2454998D3*
Y1719998D3*
X2324998D3*
X2388498D3*
D61*
X3249998Y1924998D3*
Y1989998D3*
Y2054998D3*
X3079998D3*
Y1989998D3*
Y1924998D3*
D51*
X2299998Y3199998D3*
X2499998D3*
X2699998D3*
X2899998D3*
X3099998D3*
X3299998D3*
D67*
X2774998Y1999998D3*
Y1829998D3*
D69*
X3324998Y2274998D3*
X3154998D3*
X3299998Y1349998D3*
X3129998D3*
D63*
X1424998Y1999998D3*
X1489998D3*
X1554998D3*
Y2169998D3*
X1424998D3*
X1488498D3*
D67*
X2299998Y3024998D3*
Y2854998D3*
X2499998Y3024998D3*
Y2854998D3*
X2899998Y2999998D3*
Y2829998D3*
X2699998Y2874998D3*
Y3044998D3*
D49*
X1499998Y3015998D3*
Y3095998D3*
Y3175998D3*
Y3255998D3*
X1339998D3*
Y3175998D3*
Y3095998D3*
Y3015998D3*
D43*
X1449998Y1415998D3*
X1544998D3*
X1639998D3*
Y1675998D3*
X1449998D3*
D69*
X3149998Y2649998D3*
X3319998D3*
X3149998Y2474998D3*
X3319998D3*
M02*
